<svg width="28" height="30" viewBox="0 0 28 30" fill="none" xmlns="http://www.w3.org/2000/svg">
<path d="M24.2774 0C26.0349 0 27.4524 1.42125 27.5362 3.09375V30L24.1899 27.1587L22.3524 25.4862L20.3474 23.7387L21.1849 26.495H3.6374C1.8849 26.495 0.462402 25.1637 0.462402 23.4V3.1C0.462402 1.4275 1.8874 0.00375 3.64365 0.00375H24.2687L24.2774 0ZM16.6299 7.10375H16.5924L16.3399 7.35375C18.9312 8.10375 20.1849 9.275 20.1849 9.275C18.5149 8.44 17.0099 8.0225 15.5049 7.85375C14.4174 7.685 13.3299 7.77375 12.4112 7.85375H12.1612C11.5737 7.85375 10.3237 8.10375 8.64865 8.7725C8.0649 9.02625 7.7299 9.1925 7.7299 9.1925C7.7299 9.1925 8.9824 7.94 11.7424 7.27125L11.5737 7.1025C11.5737 7.1025 9.48365 7.0225 7.2274 8.69C7.2274 8.69 4.97115 12.62 4.97115 17.465C4.97115 17.465 6.22115 19.64 9.6499 19.7225C9.6499 19.7225 10.1499 19.0562 10.6562 18.47C8.73115 17.885 7.98115 16.715 7.98115 16.715C7.98115 16.715 8.14865 16.7975 8.3999 16.965H8.4749C8.5124 16.965 8.5299 16.9837 8.5499 17.0025V17.01C8.5699 17.03 8.5874 17.0475 8.6249 17.0475C9.0374 17.2175 9.4499 17.385 9.7874 17.5475C10.3699 17.8 11.1187 18.0513 12.0374 18.2175C13.1999 18.3862 14.5324 18.4675 16.0499 18.2175C16.7999 18.0487 17.5499 17.8837 18.2999 17.5487C18.7874 17.2987 19.3874 17.0487 20.0462 16.6275C20.0462 16.6275 19.2962 17.7975 17.2899 18.3825C17.7024 18.965 18.2837 19.6325 18.2837 19.6325C21.7137 19.5575 23.0462 17.3825 23.1212 17.475C23.1212 12.6375 20.8524 8.7 20.8524 8.7C18.8087 7.1825 16.8962 7.125 16.5587 7.125L16.6287 7.1L16.6299 7.10375ZM16.8399 12.62C17.7187 12.62 18.4274 13.37 18.4274 14.2887C18.4274 15.2137 17.7149 15.9637 16.8399 15.9637C15.9649 15.9637 15.2524 15.2138 15.2524 14.2963C15.2549 13.3713 15.9687 12.6237 16.8399 12.6237V12.62ZM11.1612 12.62C12.0362 12.62 12.7437 13.37 12.7437 14.2887C12.7437 15.2137 12.0312 15.9637 11.1562 15.9637C10.2812 15.9637 9.56865 15.2138 9.56865 14.2963C9.56865 13.3713 10.2812 12.6237 11.1562 12.6237L11.1612 12.62Z" fill="white"/>
</svg>
