<svg width="27" height="27" viewBox="0 0 27 27" fill="none" xmlns="http://www.w3.org/2000/svg">
<path d="M21.9375 16.0312C20.925 16.0312 19.9969 16.2844 19.1531 16.875H15.4406C14.5969 16.2844 13.6687 16.0312 12.6562 16.0312C9.87188 16.0312 7.59375 18.3094 7.59375 21.0938C7.59375 23.8781 9.87188 26.1562 12.6562 26.1562C13.6687 26.1562 14.5969 25.9031 15.4406 25.3125H19.1531C19.9969 25.9031 20.925 26.1562 21.9375 26.1562C24.7219 26.1562 27 23.8781 27 21.0938C27 18.3094 24.7219 16.0312 21.9375 16.0312ZM14.3438 21.9375H13.5V22.7812C13.5 23.2875 13.1625 23.625 12.6562 23.625C12.15 23.625 11.8125 23.2875 11.8125 22.7812V21.9375H10.9688C10.4625 21.9375 10.125 21.6 10.125 21.0938C10.125 20.5875 10.4625 20.25 10.9688 20.25H11.8125V19.4062C11.8125 18.9 12.15 18.5625 12.6562 18.5625C13.1625 18.5625 13.5 18.9 13.5 19.4062V20.25H14.3438C14.85 20.25 15.1875 20.5875 15.1875 21.0938C15.1875 21.6 14.85 21.9375 14.3438 21.9375ZM21.8531 22.275C21.7687 22.3594 21.7688 22.4438 21.6844 22.5281C21.6 22.6125 21.5156 22.6969 21.4312 22.6969C21.3469 22.6969 21.1781 22.7812 21.0938 22.7812C21.0094 22.7812 20.8406 22.7812 20.7563 22.6969C20.6719 22.6969 20.5875 22.6125 20.5031 22.5281C20.4187 22.4438 20.3344 22.3594 20.3344 22.275C20.25 22.1906 20.25 22.0219 20.25 21.9375C20.25 21.8531 20.25 21.6844 20.3344 21.6C20.4188 21.5156 20.4187 21.4312 20.5031 21.3469C20.5875 21.2625 20.6719 21.1781 20.7563 21.1781C21.0938 21.0094 21.4313 21.0937 21.6844 21.3469C21.7688 21.4312 21.8531 21.5156 21.8531 21.6C21.8531 21.6844 21.9375 21.8531 21.9375 21.9375C21.9375 22.0219 21.9375 22.1906 21.8531 22.275ZM23.5406 20.5875C23.4562 20.6719 23.4563 20.7563 23.3719 20.8406C23.2875 20.925 23.2031 21.0094 23.1187 21.0094C23.0344 21.0094 22.8656 21.0938 22.7812 21.0938C22.6969 21.0938 22.5281 21.0937 22.4438 21.0094C22.3594 21.0094 22.275 20.925 22.1906 20.8406C22.0219 20.6719 21.9375 20.5031 21.9375 20.25C21.9375 19.9969 22.0219 19.8281 22.1906 19.6594L22.275 19.575C22.3594 19.575 22.3594 19.4906 22.4438 19.4906C22.5281 19.4906 22.5281 19.4906 22.6125 19.4062C22.6969 19.4062 22.8656 19.4062 22.95 19.4062C23.0344 19.4062 23.0344 19.4063 23.1187 19.4906C23.2031 19.4906 23.2031 19.4906 23.2875 19.575L23.3719 19.6594C23.5406 19.8281 23.625 20.0813 23.625 20.25C23.625 20.3344 23.625 20.5031 23.5406 20.5875Z" fill="white"/>
<path d="M11.3906 14.5123C11.475 14.0904 11.475 13.6686 11.3906 13.2467C11.2219 12.2342 10.4625 11.4748 9.53438 11.1373C9.02812 10.9686 8.4375 10.7998 7.7625 10.7154C5.7375 10.2936 3.45937 9.7873 2.61562 8.01543C2.27812 7.34043 2.10938 6.7498 1.94062 6.15918C0.759375 8.01543 0 10.2936 0 12.6561C0 17.0436 2.44688 20.9248 5.99062 22.9498C5.99062 22.7811 6.075 22.6967 6.075 22.5279C5.99062 22.0217 5.90625 21.5998 5.90625 21.0936C5.90625 17.8029 8.26875 15.1029 11.3906 14.5123Z" fill="white"/>
<path d="M8.1 9.02812C8.775 9.19687 9.45 9.36563 10.0406 9.53438C11.5594 10.0406 12.7406 11.3063 12.9937 12.9094C13.0781 13.4156 13.0781 13.9219 12.9937 14.4281C14.0062 14.5125 14.9344 14.7656 15.7781 15.2719H18.225C19.0688 14.6813 19.7437 13.9219 20.25 13.0781C21.4312 11.3062 21.6844 8.01562 21.7687 6.58125C19.8281 3.12188 16.1156 0.84375 11.8125 0.84375C8.52187 0.84375 5.56875 2.19375 3.375 4.3875C3.375 4.80937 3.54375 5.99062 4.13438 7.17188C4.64063 8.26875 6.49688 8.60625 8.1 9.02812Z" fill="white"/>
<path d="M21.5156 14.3438C21.6844 14.3438 21.7688 14.3438 21.9375 14.3438C22.4438 14.3438 22.95 14.4282 23.4562 14.5126C23.5406 13.922 23.625 13.247 23.625 12.6563C23.625 11.6438 23.4563 10.7157 23.2875 9.7876C23.0344 11.222 22.6125 12.8251 21.8531 13.922C21.6844 14.0907 21.6 14.2595 21.5156 14.3438Z" fill="white"/>
</svg>
