<svg width="12" height="21" viewBox="0 0 12 21" fill="none" xmlns="http://www.w3.org/2000/svg">
<path d="M11.2743 18.4221C11.8017 18.9493 11.802 19.8055 11.2743 20.3331C10.7471 20.8607 9.89124 20.8605 9.36333 20.3331C9.36023 20.33 9.3579 20.3269 9.35511 20.3236L9.35122 20.327L0.401095 11.3769L0.404821 11.3735C0.154913 11.1284 3.69034e-07 10.7875 3.69034e-07 10.4098C-0.000310076 9.98609 0.19527 9.60797 0.501214 9.36023L0.491901 9.35123L9.44203 0.401095L9.44591 0.404821C9.4487 0.401561 9.45103 0.398767 9.45414 0.395818C9.98189 -0.131939 10.8375 -0.131939 11.3652 0.395818C11.8927 0.922953 11.8927 1.77854 11.3652 2.30676C11.362 2.30987 11.3589 2.31204 11.3558 2.31514L11.3593 2.31887L3.2693 10.4098L11.2695 18.41L11.2656 18.4133C11.2679 18.4167 11.2712 18.4189 11.2743 18.4221Z" fill="white"/>
</svg>
