<svg width="12" height="22" viewBox="0 0 12 22" fill="none" xmlns="http://www.w3.org/2000/svg">
<path d="M0.606331 2.98315C0.0788851 2.45601 0.0785742 1.5998 0.606331 1.0722C1.13347 0.544601 1.98936 0.544756 2.51727 1.0722C2.52038 1.07531 2.52271 1.07841 2.5255 1.08167L2.52938 1.07826L11.4795 10.0284L11.4758 10.0318C11.7257 10.2769 11.8806 10.6178 11.8806 10.9954C11.8809 11.4192 11.6853 11.7973 11.3794 12.045L11.3887 12.054L2.43858 21.0042L2.4347 21.0005C2.4319 21.0037 2.42957 21.0065 2.42647 21.0095C1.89871 21.5372 1.04313 21.5372 0.51537 21.0095C-0.0120754 20.4823 -0.0120754 19.6267 0.51537 19.0985C0.51863 19.0954 0.521734 19.0932 0.524838 19.0901L0.521268 19.0864L8.61131 10.9954L0.611142 2.99526L0.615024 2.992C0.612695 2.98858 0.609435 2.98641 0.606331 2.98315Z" fill="black"/>
</svg>
